<?xml version="1.0" encoding="UTF-8"?>
<!DOCTYPE svg PUBLIC "-//W3C//DTD SVG 1.1//EN" "http://www.w3.org/Graphics/SVG/1.1/DTD/svg11.dtd">
<svg xmlns="http://www.w3.org/2000/svg" version="1.1" width="90px" height="90px" style="shape-rendering:geometricPrecision; text-rendering:geometricPrecision; image-rendering:optimizeQuality; fill-rule:evenodd; clip-rule:evenodd" xmlns:xlink="http://www.w3.org/1999/xlink">
<g><path style="opacity:0.956" fill="#076047" d="M 41.5,8.5 C 52.9893,7.15508 57.8226,12.1551 56,23.5C 52.7231,29.1088 47.8897,30.9422 41.5,29C 35.8912,25.7231 34.0578,20.8897 36,14.5C 37.3597,11.9774 39.193,9.97739 41.5,8.5 Z"/></g>
<g><path style="opacity:0.93" fill="#076047" d="M 16.5,20.5 C 26.6591,19.1581 30.8257,23.4914 29,33.5C 26.1034,38.1549 21.9367,39.6549 16.5,38C 11.8451,35.1034 10.3451,30.9367 12,25.5C 13.025,23.313 14.525,21.6464 16.5,20.5 Z"/></g>
<g><path style="opacity:0.858" fill="#075f49" d="M 65.5,26.5 C 67.5,26.5 69.5,26.5 71.5,26.5C 71.5,28.5 71.5,30.5 71.5,32.5C 69.5,32.5 67.5,32.5 65.5,32.5C 65.5,30.5 65.5,28.5 65.5,26.5 Z"/></g>
<g><path style="opacity:0.836" fill="#0b5c46" d="M 71.5,40.5 C 78.1584,39.3445 80.1584,41.8445 77.5,48C 70.7496,49.4689 68.7496,46.9689 71.5,40.5 Z"/></g>
<g><path style="opacity:0.939" fill="#08624a" d="M 11.5,44.5 C 23.8184,43.6575 26.8184,48.4908 20.5,59C 10.6667,61.1667 6.83333,57.3333 9,47.5C 10.045,46.6266 10.8783,45.6266 11.5,44.5 Z"/></g>
<g><path style="opacity:0.94" fill="#076048" d="M 64.5,56.5 C 74.4874,55.3319 77.154,59.1653 72.5,68C 62.4338,69.4671 59.7671,65.6338 64.5,56.5 Z"/></g>
<g><path style="opacity:0.94" fill="#076048" d="M 25.5,65.5 C 35.4874,64.3319 38.154,68.1653 33.5,77C 23.4338,78.4671 20.7671,74.6338 25.5,65.5 Z"/></g>
<g><path style="opacity:0.94" fill="#076048" d="M 46.5,68.5 C 56.4874,67.3319 59.154,71.1653 54.5,80C 44.4338,81.4671 41.7671,77.6338 46.5,68.5 Z"/></g>
</svg>
